<svg xmlns="http://www.w3.org/2000/svg" xmlns:xlink="http://www.w3.org/1999/xlink" viewBox="0 0 66 65" fill="#fff" fill-rule="evenodd" stroke="#000" stroke-linecap="round" stroke-linejoin="round"><use xlink:href="#A" x=".5" y=".5"/><symbol id="A" overflow="visible"><g stroke="none" fill-rule="nonzero"><path d="M0 7.566A7.55 7.55 0 0 1 7.566 0h48.868A7.55 7.55 0 0 1 64 7.566v48.868A7.55 7.55 0 0 1 56.434 64H7.566A7.55 7.55 0 0 1 0 56.434z" fill="#3396cd"/><path d="M47.772 13.023c1.377 2.27 1.994 4.61 1.994 7.566 0 9.426-8.046 21.668-14.576 30.264H20.279l-5.978-35.764 13.061-1.24 3.175 25.447c2.952-4.815 6.602-12.381 6.602-17.536 0-2.824-.484-4.744-1.24-6.326z"/></g></symbol></svg>